<svg width="24" height="24" viewBox="0 0 24 24" fill="none" xmlns="http://www.w3.org/2000/svg">
<g clip-path="url(#clip0)">
<path d="M11.8 23C11.8 23 3 16.4 3 9.8C3 4.3 7.4 1 11.8 1C16.2 1 20.6 4.3 20.6 9.8C20.6 16.4 11.8 23 11.8 23ZM11.8 13.1C12.6752 13.1 13.5146 12.7523 14.1335 12.1335C14.7523 11.5146 15.1 10.6752 15.1 9.8C15.1 8.92479 14.7523 8.08542 14.1335 7.46655C13.5146 6.84768 12.6752 6.5 11.8 6.5C10.9248 6.5 10.0854 6.84768 9.46655 7.46655C8.84768 8.08542 8.5 8.92479 8.5 9.8C8.5 10.6752 8.84768 11.5146 9.46655 12.1335C10.0854 12.7523 10.9248 13.1 11.8 13.1Z" stroke="#00B9F0" stroke-width="2"/>
</g>
<defs>
<clipPath id="clip0">
<rect width="24" height="24" fill="white"/>
</clipPath>
</defs>
</svg>
